<svg width="300" height="300" viewBox="0 0 300 300" fill="none" xmlns="http://www.w3.org/2000/svg">
<path d="M26.3438 246V233.988L35.1914 232.113V174.633L26.3438 172.758V160.688H96.5977V185.824H81.0703L80.6602 176.508H55.7578V196.254H84.7617V211.957H55.7578V232.113L64.6055 233.988V246H26.3438Z" fill="#012953"/>
<path d="M103.057 246V233.988L110.44 232.113V196.547L101.651 194.672V182.602H129.834L130.303 190.336L130.42 191.918C133.155 184.926 137.51 181.43 143.487 181.43C144.346 181.43 145.362 181.508 146.534 181.664C147.705 181.781 148.897 182.016 150.108 182.367L148.057 201.234L139.268 200.824C137.237 200.746 135.635 200.98 134.463 201.527C133.33 202.035 132.178 202.895 131.006 204.105V232.113L138.389 233.988V246H103.057Z" fill="#012953"/>
<path d="M184.692 247.23C178.481 247.23 173.052 245.902 168.403 243.246C163.794 240.551 160.2 236.879 157.622 232.23C155.083 227.582 153.813 222.328 153.813 216.469V214.301C153.813 207.855 154.946 202.152 157.212 197.191C159.477 192.23 162.798 188.363 167.173 185.59C171.548 182.777 176.919 181.391 183.286 181.43C191.88 181.43 198.481 183.91 203.091 188.871C207.7 193.793 210.005 200.922 210.005 210.258V220.863H175.141L175.083 221.273C175.512 224.242 176.802 226.703 178.95 228.656C181.098 230.609 184.184 231.586 188.208 231.586C193.286 231.586 198.598 230.316 204.145 227.777L208.833 240.199C205.981 242.23 202.505 243.91 198.403 245.238C194.302 246.566 189.731 247.23 184.692 247.23ZM175.141 208.148H191.255V206.625C191.255 203.227 190.727 200.668 189.673 198.949C188.618 197.191 186.645 196.312 183.755 196.312C180.63 196.312 178.442 197.406 177.192 199.594C175.981 201.742 175.22 204.496 174.907 207.855L175.141 208.148Z" fill="#012953"/>
<path d="M248.339 247.23C242.128 247.23 236.698 245.902 232.05 243.246C227.441 240.551 223.847 236.879 221.269 232.23C218.73 227.582 217.46 222.328 217.46 216.469V214.301C217.46 207.855 218.593 202.152 220.859 197.191C223.124 192.23 226.445 188.363 230.82 185.59C235.195 182.777 240.566 181.391 246.933 181.43C255.527 181.43 262.128 183.91 266.738 188.871C271.347 193.793 273.652 200.922 273.652 210.258V220.863H238.788L238.73 221.273C239.159 224.242 240.448 226.703 242.597 228.656C244.745 230.609 247.831 231.586 251.855 231.586C256.933 231.586 262.245 230.316 267.792 227.777L272.48 240.199C269.628 242.23 266.152 243.91 262.05 245.238C257.948 246.566 253.378 247.23 248.339 247.23ZM238.788 208.148H254.902V206.625C254.902 203.227 254.374 200.668 253.32 198.949C252.265 197.191 250.292 196.312 247.402 196.312C244.277 196.312 242.089 197.406 240.839 199.594C239.628 201.742 238.866 204.496 238.554 207.855L238.788 208.148Z" fill="#012953"/>
<path d="M26 137.312V125.301L34.8477 123.426V65.9453L26 64.0703V52H64.6133C75.3555 52 83.7344 53.9727 89.75 57.918C95.7656 61.8633 98.7734 67.7422 98.7734 75.5547C98.7734 79.5781 97.8164 83.1914 95.9023 86.3945C93.9883 89.5586 91.0391 91.9609 87.0547 93.6016C92.1719 94.6953 95.8828 96.9414 98.1875 100.34C100.492 103.699 101.645 107.586 101.645 112C101.645 120.359 98.8516 126.668 93.2656 130.926C87.6797 135.184 79.5742 137.312 68.9492 137.312H26ZM55.4141 87.3906H63.7344C73.3828 87.3906 78.207 84.2266 78.207 77.8984C78.207 74.3438 77.0742 71.7656 74.8086 70.1641C72.582 68.5234 69.1836 67.7031 64.6133 67.7031H55.4141V87.3906ZM55.4141 121.668H68.9492C77.1133 121.668 81.1953 118.426 81.1953 111.941C81.1953 108.27 80.2969 105.535 78.5 103.738C76.7422 101.902 73.8906 100.984 69.9453 100.984H55.4141V121.668Z" fill="#008B9F"/>
<rect x="142" y="74" width="104" height="16" fill="#B3B5B9"/>
<rect x="142" y="107" width="104" height="16" fill="#B3B5B9"/>
</svg>
